<svg xmlns="http://www.w3.org/2000/svg" xmlns:xlink="http://www.w3.org/1999/xlink" width="680" zoomAndPan="magnify" viewBox="0 0 510 510.000002" height="680" preserveAspectRatio="xMidYMid meet" version="1.0"><defs><clipPath id="baa6ba4d8f"><path d="M 0.390625 0.109375 L 247.609375 0.109375 L 247.609375 283 L 0.390625 283 Z M 0.390625 0.109375 " clip-rule="nonzero"/></clipPath><clipPath id="b96a5451d7"><path d="M 247.609375 109.925781 L 247.609375 173.359375 C 247.609375 185.023438 242.769531 191.855469 232.816406 197.542969 L 79.476562 282.894531 L 79.476562 227.988281 C 79.476562 219.457031 82.890625 213.195312 90.289062 209.214844 L 179.902344 159.144531 C 183.316406 157.160156 185.308594 153.738281 185.308594 149.757812 L 185.308594 133.535156 C 185.308594 129.546875 183.324219 126.136719 179.902344 124.140625 L 90.289062 74.082031 C 83.179688 70.089844 79.476562 63.835938 79.476562 55.308594 L 79.476562 0.109375 L 232.816406 85.742188 C 242.769531 91.148438 247.609375 98.261719 247.609375 109.925781 M 0.390625 241.074219 L 0.390625 41.929688 L 53.867188 70.378906 C 60.703125 74.082031 64.683594 80.058594 64.683594 88.585938 L 64.683594 194.417969 C 64.683594 202.667969 60.703125 209.214844 53.867188 212.914062 Z M 0.390625 241.074219 " clip-rule="nonzero"/></clipPath><clipPath id="6b13c4c620"><path d="M 0.390625 0.109375 L 247.609375 0.109375 L 247.609375 282.945312 L 0.390625 282.945312 Z M 0.390625 0.109375 " clip-rule="nonzero"/></clipPath><clipPath id="93f274ea6c"><path d="M 247.609375 109.925781 L 247.609375 173.359375 C 247.609375 185.023438 242.769531 191.855469 232.816406 197.542969 L 79.476562 282.894531 L 79.476562 227.988281 C 79.476562 219.457031 82.890625 213.195312 90.289062 209.214844 L 179.902344 159.144531 C 183.316406 157.160156 185.308594 153.738281 185.308594 149.757812 L 185.308594 133.535156 C 185.308594 129.546875 183.324219 126.136719 179.902344 124.140625 L 90.289062 74.082031 C 83.179688 70.089844 79.476562 63.835938 79.476562 55.308594 L 79.476562 0.109375 L 232.816406 85.742188 C 242.769531 91.148438 247.609375 98.261719 247.609375 109.925781 M 0.390625 241.074219 L 0.390625 41.929688 L 53.867188 70.378906 C 60.703125 74.082031 64.683594 80.058594 64.683594 88.585938 L 64.683594 194.417969 C 64.683594 202.667969 60.703125 209.214844 53.867188 212.914062 Z M 0.390625 241.074219 " clip-rule="nonzero"/></clipPath><clipPath id="6a3b3cb0fa"><rect x="0" width="248" y="0" height="283"/></clipPath><clipPath id="5827897754"><rect x="0" width="248" y="0" height="284"/></clipPath></defs><g transform="matrix(1, 0, 0, 1, 131, 113)"><g clip-path="url(#5827897754)"><g clip-path="url(#baa6ba4d8f)"><g clip-path="url(#b96a5451d7)"><g transform="matrix(1, 0, 0, 1, 0, -0.000000000000014211)"><g clip-path="url(#6a3b3cb0fa)"><g clip-path="url(#6b13c4c620)"><g clip-path="url(#93f274ea6c)"><path fill="#ffffff" d="M 0.390625 0.109375 L 247.609375 0.109375 L 247.609375 283.0625 L 0.390625 283.0625 Z M 0.390625 0.109375 " fill-opacity="1" fill-rule="nonzero"/></g></g></g></g></g></g></g></g></svg>