<svg xmlns="http://www.w3.org/2000/svg" xmlns:xlink="http://www.w3.org/1999/xlink" width="1100" zoomAndPan="magnify" viewBox="-36.5 0 824.88 112.5" height="150" preserveAspectRatio="xMidYMid meet" version="1.0"><defs><g/><clipPath id="e3f2de64e0"><path d="M 23.605469 25.136719 L 77.835938 25.136719 L 77.835938 87.203125 L 23.605469 87.203125 Z M 23.605469 25.136719 " clip-rule="nonzero"/></clipPath><clipPath id="8b095fc1cd"><path d="M 77.832031 49.21875 L 77.832031 63.136719 C 77.832031 65.695312 76.769531 67.195312 74.589844 68.445312 L 40.957031 87.167969 L 40.957031 75.117188 C 40.957031 73.246094 41.703125 71.875 43.332031 70.996094 L 62.984375 60.015625 C 63.734375 59.574219 64.171875 58.828125 64.171875 57.957031 L 64.171875 54.40625 C 64.171875 53.527344 63.734375 52.78125 62.984375 52.347656 L 43.324219 41.363281 C 41.765625 40.492188 40.949219 39.113281 40.949219 37.238281 L 40.949219 25.136719 L 74.589844 43.917969 C 76.769531 45.105469 77.832031 46.664062 77.832031 49.21875 M 23.605469 77.992188 L 23.605469 34.304688 L 35.339844 40.542969 C 36.835938 41.355469 37.714844 42.671875 37.714844 44.535156 L 37.714844 67.757812 C 37.714844 69.570312 36.84375 71.003906 35.339844 71.8125 Z M 23.605469 77.992188 " clip-rule="nonzero"/></clipPath><clipPath id="546405dcca"><path d="M 0.605469 0.136719 L 54.835938 0.136719 L 54.835938 62.203125 L 0.605469 62.203125 Z M 0.605469 0.136719 " clip-rule="nonzero"/></clipPath><clipPath id="ef2efd4237"><path d="M 54.832031 24.21875 L 54.832031 38.136719 C 54.832031 40.695312 53.769531 42.195312 51.589844 43.445312 L 17.957031 62.167969 L 17.957031 50.117188 C 17.957031 48.246094 18.703125 46.875 20.332031 45.996094 L 39.984375 35.015625 C 40.734375 34.574219 41.171875 33.828125 41.171875 32.957031 L 41.171875 29.40625 C 41.171875 28.527344 40.734375 27.78125 39.984375 27.347656 L 20.324219 16.363281 C 18.765625 15.492188 17.949219 14.113281 17.949219 12.238281 L 17.949219 0.136719 L 51.589844 18.917969 C 53.769531 20.105469 54.832031 21.664062 54.832031 24.21875 M 0.605469 52.992188 L 0.605469 9.304688 L 12.339844 15.542969 C 13.835938 16.355469 14.714844 17.671875 14.714844 19.535156 L 14.714844 42.757812 C 14.714844 44.570312 13.84375 46.003906 12.339844 46.8125 Z M 0.605469 52.992188 " clip-rule="nonzero"/></clipPath><clipPath id="f9cd21c475"><rect x="0" width="55" y="0" height="63"/></clipPath><clipPath id="3e231d01f5"><path d="M 99.539062 34.148438 L 128.941406 34.148438 L 128.941406 78 L 99.539062 78 Z M 99.539062 34.148438 " clip-rule="nonzero"/></clipPath><clipPath id="f591b92c23"><path d="M 120.652344 63.886719 L 120.652344 48.414062 C 120.652344 43.984375 118.660156 41.796875 114.476562 41.796875 L 107.800781 41.796875 L 107.800781 70.503906 L 114.484375 70.503906 C 118.667969 70.503906 120.660156 68.316406 120.660156 63.894531 M 115.230469 34.308594 C 123.652344 34.308594 128.773438 39.546875 128.773438 48.097656 L 128.773438 64.203125 C 128.773438 72.753906 123.660156 77.992188 115.230469 77.992188 L 99.6875 77.992188 L 99.6875 34.308594 Z M 115.230469 34.308594 " clip-rule="nonzero"/></clipPath><clipPath id="ff46fd0763"><path d="M 0.539062 0.167969 L 29.878906 0.167969 L 29.878906 44 L 0.539062 44 Z M 0.539062 0.167969 " clip-rule="nonzero"/></clipPath><clipPath id="80f8111f68"><path d="M 21.652344 29.886719 L 21.652344 14.414062 C 21.652344 9.984375 19.660156 7.796875 15.476562 7.796875 L 8.800781 7.796875 L 8.800781 36.503906 L 15.484375 36.503906 C 19.667969 36.503906 21.660156 34.316406 21.660156 29.894531 M 16.230469 0.308594 C 24.652344 0.308594 29.773438 5.546875 29.773438 14.097656 L 29.773438 30.203125 C 29.773438 38.753906 24.660156 43.992188 16.230469 43.992188 L 0.6875 43.992188 L 0.6875 0.308594 Z M 16.230469 0.308594 " clip-rule="nonzero"/></clipPath><clipPath id="13928ec2cc"><rect x="0" width="30" y="0" height="44"/></clipPath><clipPath id="93187119b2"><path d="M 135.316406 34.148438 L 164.511719 34.148438 L 164.511719 78.765625 L 135.316406 78.765625 Z M 135.316406 34.148438 " clip-rule="nonzero"/></clipPath><clipPath id="c1a2e316df"><path d="M 135.324219 64.324219 L 135.324219 34.308594 L 143.4375 34.308594 L 143.4375 64.324219 C 143.4375 68.695312 145.617188 71.128906 149.742188 71.128906 L 150.046875 71.128906 C 154.171875 71.128906 156.351562 68.695312 156.351562 64.324219 L 156.351562 34.308594 L 164.472656 34.308594 L 164.472656 64.324219 C 164.472656 73.1875 159.234375 78.617188 151.058594 78.617188 L 148.746094 78.617188 C 140.570312 78.617188 135.332031 73.1875 135.332031 64.324219 " clip-rule="nonzero"/></clipPath><clipPath id="037c13dba8"><path d="M 0.316406 0.167969 L 29.480469 0.167969 L 29.480469 44.765625 L 0.316406 44.765625 Z M 0.316406 0.167969 " clip-rule="nonzero"/></clipPath><clipPath id="ce28055d7d"><path d="M 0.324219 30.324219 L 0.324219 0.308594 L 8.4375 0.308594 L 8.4375 30.324219 C 8.4375 34.695312 10.617188 37.128906 14.742188 37.128906 L 15.046875 37.128906 C 19.171875 37.128906 21.351562 34.695312 21.351562 30.324219 L 21.351562 0.308594 L 29.472656 0.308594 L 29.472656 30.324219 C 29.472656 39.1875 24.234375 44.617188 16.058594 44.617188 L 13.746094 44.617188 C 5.570312 44.617188 0.332031 39.1875 0.332031 30.324219 " clip-rule="nonzero"/></clipPath><clipPath id="6a3f79a17d"><rect x="0" width="30" y="0" height="45"/></clipPath><clipPath id="4affe53e40"><path d="M 171 33.53125 L 200.289062 33.53125 L 200.289062 78.765625 L 171 78.765625 Z M 171 33.53125 " clip-rule="nonzero"/></clipPath><clipPath id="22b734669b"><path d="M 192.054688 64.324219 L 192.054688 47.976562 C 192.054688 43.605469 189.867188 41.171875 185.753906 41.171875 L 185.4375 41.171875 C 181.316406 41.171875 179.074219 43.605469 179.074219 47.976562 L 179.074219 64.324219 C 179.074219 68.632812 181.324219 71.128906 185.4375 71.128906 L 185.753906 71.128906 C 189.867188 71.128906 192.054688 68.632812 192.054688 64.324219 M 171.027344 64.324219 L 171.027344 47.976562 C 171.027344 39.113281 176.269531 33.683594 184.441406 33.683594 L 186.753906 33.683594 C 194.929688 33.683594 200.167969 39.113281 200.167969 47.976562 L 200.167969 64.324219 C 200.167969 73.1875 194.929688 78.617188 186.753906 78.617188 L 184.441406 78.617188 C 176.269531 78.617188 171.027344 73.1875 171.027344 64.324219 " clip-rule="nonzero"/></clipPath><clipPath id="23e8ecae90"><path d="M 0 0.53125 L 29.289062 0.53125 L 29.289062 45.765625 L 0 45.765625 Z M 0 0.53125 " clip-rule="nonzero"/></clipPath><clipPath id="00265e306d"><path d="M 21.054688 31.324219 L 21.054688 14.976562 C 21.054688 10.605469 18.867188 8.171875 14.753906 8.171875 L 14.4375 8.171875 C 10.316406 8.171875 8.074219 10.605469 8.074219 14.976562 L 8.074219 31.324219 C 8.074219 35.632812 10.324219 38.128906 14.4375 38.128906 L 14.753906 38.128906 C 18.867188 38.128906 21.054688 35.632812 21.054688 31.324219 M 0.0273438 31.324219 L 0.0273438 14.976562 C 0.0273438 6.113281 5.269531 0.683594 13.441406 0.683594 L 15.753906 0.683594 C 23.929688 0.683594 29.167969 6.113281 29.167969 14.976562 L 29.167969 31.324219 C 29.167969 40.1875 23.929688 45.617188 15.753906 45.617188 L 13.441406 45.617188 C 5.269531 45.617188 0.0273438 40.1875 0.0273438 31.324219 " clip-rule="nonzero"/></clipPath><clipPath id="6ff840101f"><rect x="0" width="30" y="0" height="46"/></clipPath><clipPath id="7094f2d72f"><path d="M 204.195312 34.148438 L 233.1875 34.148438 L 233.1875 78 L 204.195312 78 Z M 204.195312 34.148438 " clip-rule="nonzero"/></clipPath><clipPath id="c9dce06fd3"><path d="M 222.769531 41.609375 L 222.769531 77.992188 L 214.65625 77.992188 L 214.65625 41.609375 L 204.230469 41.609375 L 204.230469 34.308594 L 233.183594 34.308594 L 233.183594 41.601562 Z M 222.769531 41.609375 " clip-rule="nonzero"/></clipPath><clipPath id="58c0dc8b93"><path d="M 0.195312 0.167969 L 29.1875 0.167969 L 29.1875 44 L 0.195312 44 Z M 0.195312 0.167969 " clip-rule="nonzero"/></clipPath><clipPath id="add3d2bffe"><path d="M 18.769531 7.609375 L 18.769531 43.992188 L 10.65625 43.992188 L 10.65625 7.609375 L 0.230469 7.609375 L 0.230469 0.308594 L 29.183594 0.308594 L 29.183594 7.601562 Z M 18.769531 7.609375 " clip-rule="nonzero"/></clipPath><clipPath id="fa65df9fda"><rect x="0" width="30" y="0" height="44"/></clipPath><clipPath id="08b1931857"><path d="M 237.09375 33.53125 L 266.5 33.53125 L 266.5 78.765625 L 237.09375 78.765625 Z M 237.09375 33.53125 " clip-rule="nonzero"/></clipPath><clipPath id="d96bb30c0f"><path d="M 258.28125 64.324219 L 258.28125 47.976562 C 258.28125 43.605469 256.089844 41.171875 251.976562 41.171875 L 251.667969 41.171875 C 247.546875 41.171875 245.304688 43.605469 245.304688 47.976562 L 245.304688 64.324219 C 245.304688 68.632812 247.554688 71.128906 251.667969 71.128906 L 251.976562 71.128906 C 256.089844 71.128906 258.28125 68.632812 258.28125 64.324219 M 237.253906 64.324219 L 237.253906 47.976562 C 237.253906 39.113281 242.492188 33.683594 250.667969 33.683594 L 252.980469 33.683594 C 261.152344 33.683594 266.394531 39.113281 266.394531 47.976562 L 266.394531 64.324219 C 266.394531 73.1875 261.152344 78.617188 252.980469 78.617188 L 250.667969 78.617188 C 242.492188 78.617188 237.253906 73.1875 237.253906 64.324219 " clip-rule="nonzero"/></clipPath><clipPath id="14534d69db"><path d="M 0.121094 0.53125 L 29.5 0.53125 L 29.5 45.765625 L 0.121094 45.765625 Z M 0.121094 0.53125 " clip-rule="nonzero"/></clipPath><clipPath id="6d317bc20a"><path d="M 21.28125 31.324219 L 21.28125 14.976562 C 21.28125 10.605469 19.089844 8.171875 14.976562 8.171875 L 14.667969 8.171875 C 10.546875 8.171875 8.304688 10.605469 8.304688 14.976562 L 8.304688 31.324219 C 8.304688 35.632812 10.554688 38.128906 14.667969 38.128906 L 14.976562 38.128906 C 19.089844 38.128906 21.28125 35.632812 21.28125 31.324219 M 0.253906 31.324219 L 0.253906 14.976562 C 0.253906 6.113281 5.492188 0.683594 13.667969 0.683594 L 15.980469 0.683594 C 24.152344 0.683594 29.394531 6.113281 29.394531 14.976562 L 29.394531 31.324219 C 29.394531 40.1875 24.152344 45.617188 15.980469 45.617188 L 13.667969 45.617188 C 5.492188 45.617188 0.253906 40.1875 0.253906 31.324219 " clip-rule="nonzero"/></clipPath><clipPath id="156f4bd505"><rect x="0" width="30" y="0" height="46"/></clipPath><clipPath id="a6a2cdfe19"><path d="M 273.078125 34.148438 L 304.539062 34.148438 L 304.539062 78 L 273.078125 78 Z M 273.078125 34.148438 " clip-rule="nonzero"/></clipPath><clipPath id="27ec698f9f"><path d="M 283.496094 34.308594 L 296.351562 64.324219 L 296.351562 34.308594 L 304.464844 34.308594 L 304.464844 77.992188 L 294.230469 77.992188 L 281.371094 47.976562 L 281.371094 77.992188 L 273.257812 77.992188 L 273.257812 34.308594 Z M 283.496094 34.308594 " clip-rule="nonzero"/></clipPath><clipPath id="036263c66b"><path d="M 0.199219 0.167969 L 31.5 0.167969 L 31.5 44 L 0.199219 44 Z M 0.199219 0.167969 " clip-rule="nonzero"/></clipPath><clipPath id="963462553b"><path d="M 10.496094 0.308594 L 23.351562 30.324219 L 23.351562 0.308594 L 31.464844 0.308594 L 31.464844 43.992188 L 21.230469 43.992188 L 8.371094 13.976562 L 8.371094 43.992188 L 0.257812 43.992188 L 0.257812 0.308594 Z M 10.496094 0.308594 " clip-rule="nonzero"/></clipPath><clipPath id="0ef6981572"><rect x="0" width="32" y="0" height="44"/></clipPath><clipPath id="26652eaad6"><path d="M 311.960938 34.308594 L 336.730469 34.308594 L 336.730469 41.796875 L 311.960938 41.796875 Z M 311.960938 41.796875 L 320.074219 41.796875 L 320.074219 51.78125 L 311.960938 51.78125 Z M 311.960938 51.78125 L 335.492188 51.78125 L 335.492188 59.269531 L 311.960938 59.269531 Z M 311.960938 59.269531 L 320.074219 59.269531 L 320.074219 70.503906 L 311.960938 70.503906 Z M 311.960938 70.503906 L 337.355469 70.503906 L 337.355469 77.992188 L 311.960938 77.992188 Z M 311.960938 70.503906 " clip-rule="nonzero"/></clipPath><clipPath id="9b5fe7c645"><path d="M 0.960938 0.308594 L 25.730469 0.308594 L 25.730469 7.796875 L 0.960938 7.796875 Z M 0.960938 7.796875 L 9.074219 7.796875 L 9.074219 17.78125 L 0.960938 17.78125 Z M 0.960938 17.78125 L 24.492188 17.78125 L 24.492188 25.269531 L 0.960938 25.269531 Z M 0.960938 25.269531 L 9.074219 25.269531 L 9.074219 36.503906 L 0.960938 36.503906 Z M 0.960938 36.503906 L 26.355469 36.503906 L 26.355469 43.992188 L 0.960938 43.992188 Z M 0.960938 36.503906 " clip-rule="nonzero"/></clipPath><clipPath id="9a1e397ed7"><rect x="0" width="27" y="0" height="44"/></clipPath></defs><g clip-path="url(#e3f2de64e0)"><g clip-path="url(#8b095fc1cd)"><g transform="matrix(1, 0, 0, 1, 23, 25)"><g clip-path="url(#f9cd21c475)"><g clip-path="url(#546405dcca)"><g clip-path="url(#ef2efd4237)"><path fill="#ffffff" d="M 0.605469 0.136719 L 54.835938 0.136719 L 54.835938 62.203125 L 0.605469 62.203125 Z M 0.605469 0.136719 " fill-opacity="1" fill-rule="nonzero"/></g></g></g></g></g></g><g clip-path="url(#3e231d01f5)"><g clip-path="url(#f591b92c23)"><g transform="matrix(1, 0, 0, 1, 99, 34)"><g clip-path="url(#13928ec2cc)"><g clip-path="url(#ff46fd0763)"><g clip-path="url(#80f8111f68)"><rect x="-280.4736" width="1187.8272" fill="#ffffff" height="161.999995" y="-58.749999" fill-opacity="1"/></g></g></g></g></g></g><g clip-path="url(#93187119b2)"><g clip-path="url(#c1a2e316df)"><g transform="matrix(1, 0, 0, 1, 135, 34)"><g clip-path="url(#6a3f79a17d)"><g clip-path="url(#037c13dba8)"><g clip-path="url(#ce28055d7d)"><rect x="-316.4736" width="1187.8272" fill="#ffffff" height="161.999995" y="-58.749999" fill-opacity="1"/></g></g></g></g></g></g><g clip-path="url(#4affe53e40)"><g clip-path="url(#22b734669b)"><g transform="matrix(1, 0, 0, 1, 171, 33)"><g clip-path="url(#6ff840101f)"><g clip-path="url(#23e8ecae90)"><g clip-path="url(#00265e306d)"><rect x="-352.4736" width="1187.8272" fill="#ffffff" height="161.999995" y="-57.749999" fill-opacity="1"/></g></g></g></g></g></g><g clip-path="url(#7094f2d72f)"><g clip-path="url(#c9dce06fd3)"><g transform="matrix(1, 0, 0, 1, 204, 34)"><g clip-path="url(#fa65df9fda)"><g clip-path="url(#58c0dc8b93)"><g clip-path="url(#add3d2bffe)"><rect x="-385.4736" width="1187.8272" fill="#ffffff" height="161.999995" y="-58.749999" fill-opacity="1"/></g></g></g></g></g></g><g clip-path="url(#08b1931857)"><g clip-path="url(#d96bb30c0f)"><g transform="matrix(1, 0, 0, 1, 237, 33)"><g clip-path="url(#156f4bd505)"><g clip-path="url(#14534d69db)"><g clip-path="url(#6d317bc20a)"><rect x="-418.4736" width="1187.8272" fill="#ffffff" height="161.999995" y="-57.749999" fill-opacity="1"/></g></g></g></g></g></g><g clip-path="url(#a6a2cdfe19)"><g clip-path="url(#27ec698f9f)"><g transform="matrix(1, 0, 0, 1, 273, 34)"><g clip-path="url(#0ef6981572)"><g clip-path="url(#036263c66b)"><g clip-path="url(#963462553b)"><rect x="-454.4736" width="1187.8272" fill="#ffffff" height="161.999995" y="-58.749999" fill-opacity="1"/></g></g></g></g></g></g><g clip-path="url(#26652eaad6)"><g transform="matrix(1, 0, 0, 1, 311, 34)"><g clip-path="url(#9a1e397ed7)"><g clip-path="url(#9b5fe7c645)"><rect x="-492.4736" width="1187.8272" fill="#ffffff" height="161.999995" y="-58.749999" fill-opacity="1"/></g></g></g></g><g fill="#ffffff" fill-opacity="1"><g transform="translate(377.738462, 73.650513)"><g><path d="M 4.140625 0 L 4.140625 -34.84375 L 16.96875 -34.84375 C 22.726562 -34.84375 25.609375 -31.53125 25.609375 -24.90625 C 25.609375 -18.289062 22.726562 -14.984375 16.96875 -14.984375 L 8.140625 -14.984375 L 8.140625 0 Z M 8.140625 -18.46875 L 16.875 -18.46875 C 19.832031 -18.46875 21.3125 -20.066406 21.3125 -23.265625 L 21.3125 -26.5625 C 21.3125 -29.75 19.832031 -31.34375 16.875 -31.34375 L 8.140625 -31.34375 Z M 8.140625 -18.46875 "/></g></g></g><g fill="#ffffff" fill-opacity="1"><g transform="translate(402.599707, 73.650513)"><g><path d="M 8.140625 0 L 4.140625 0 L 4.140625 -34.84375 L 16.96875 -34.84375 C 22.726562 -34.84375 25.609375 -31.53125 25.609375 -24.90625 C 25.609375 -19.320312 23.546875 -16.09375 19.421875 -15.21875 L 26.453125 0 L 21.96875 0 L 15.421875 -14.984375 L 8.140625 -14.984375 Z M 16.875 -18.375 C 19.832031 -18.375 21.3125 -19.96875 21.3125 -23.15625 L 21.3125 -26.5625 C 21.3125 -29.75 19.832031 -31.34375 16.875 -31.34375 L 8.140625 -31.34375 L 8.140625 -18.375 Z M 16.875 -18.375 "/></g></g></g><g fill="#ffffff" fill-opacity="1"><g transform="translate(428.958632, 73.650513)"><g><path d="M 15.921875 0.59375 C 11.691406 0.59375 8.410156 -0.851562 6.078125 -3.75 C 3.753906 -6.644531 2.59375 -11.203125 2.59375 -17.421875 C 2.59375 -23.648438 3.753906 -28.207031 6.078125 -31.09375 C 8.410156 -33.988281 11.691406 -35.4375 15.921875 -35.4375 C 20.148438 -35.4375 23.425781 -33.988281 25.75 -31.09375 C 28.082031 -28.207031 29.25 -23.648438 29.25 -17.421875 C 29.25 -11.203125 28.082031 -6.644531 25.75 -3.75 C 23.425781 -0.851562 20.148438 0.59375 15.921875 0.59375 Z M 15.921875 -2.953125 C 18.816406 -2.953125 21.046875 -3.90625 22.609375 -5.8125 C 24.179688 -7.726562 24.96875 -10.300781 24.96875 -13.53125 L 24.96875 -21.3125 C 24.96875 -24.539062 24.179688 -27.113281 22.609375 -29.03125 C 21.046875 -30.945312 18.816406 -31.90625 15.921875 -31.90625 C 13.023438 -31.90625 10.796875 -30.945312 9.234375 -29.03125 C 7.671875 -27.113281 6.890625 -24.539062 6.890625 -21.3125 L 6.890625 -13.53125 C 6.890625 -10.300781 7.671875 -7.726562 9.234375 -5.8125 C 10.796875 -3.90625 13.023438 -2.953125 15.921875 -2.953125 Z M 15.921875 -2.953125 "/></g></g></g><g fill="#ffffff" fill-opacity="1"><g transform="translate(458.31293, 73.650513)"><g/></g></g><g fill="#ffffff" fill-opacity="1"><g transform="translate(466.40014, 73.650513)"><g><path d="M 15.21875 0.59375 C 13.257812 0.59375 11.5 0.238281 9.9375 -0.46875 C 8.375 -1.1875 7.050781 -2.273438 5.96875 -3.734375 C 4.882812 -5.203125 4.050781 -7.078125 3.46875 -9.359375 C 2.882812 -11.640625 2.59375 -14.328125 2.59375 -17.421875 C 2.59375 -20.515625 2.882812 -23.203125 3.46875 -25.484375 C 4.050781 -27.765625 4.882812 -29.632812 5.96875 -31.09375 C 7.050781 -32.5625 8.375 -33.648438 9.9375 -34.359375 C 11.5 -35.078125 13.257812 -35.4375 15.21875 -35.4375 C 18.082031 -35.4375 20.378906 -34.828125 22.109375 -33.609375 C 23.847656 -32.398438 25.210938 -30.550781 26.203125 -28.0625 L 23.015625 -26.109375 C 22.378906 -28.003906 21.46875 -29.441406 20.28125 -30.421875 C 19.101562 -31.410156 17.414062 -31.90625 15.21875 -31.90625 C 12.5625 -31.90625 10.507812 -30.945312 9.0625 -29.03125 C 7.613281 -27.113281 6.890625 -24.539062 6.890625 -21.3125 L 6.890625 -13.53125 C 6.890625 -10.300781 7.613281 -7.726562 9.0625 -5.8125 C 10.507812 -3.90625 12.5625 -2.953125 15.21875 -2.953125 C 17.488281 -2.953125 19.238281 -3.472656 20.46875 -4.515625 C 21.695312 -5.566406 22.628906 -7.085938 23.265625 -9.078125 L 26.453125 -7.09375 C 25.460938 -4.59375 24.054688 -2.6875 22.234375 -1.375 C 20.421875 -0.0625 18.082031 0.59375 15.21875 0.59375 Z M 15.21875 0.59375 "/></g></g></g><g fill="#ffffff" fill-opacity="1"><g transform="translate(491.910378, 73.650513)"><g><path d="M 4.140625 0 L 4.140625 -34.84375 L 23.40625 -34.84375 L 23.40625 -31.34375 L 8.140625 -31.34375 L 8.140625 -19.375 L 22.46875 -19.375 L 22.46875 -15.875 L 8.140625 -15.875 L 8.140625 -3.5 L 23.40625 -3.5 L 23.40625 0 Z M 4.140625 0 "/></g></g></g><g fill="#ffffff" fill-opacity="1"><g transform="translate(515.673328, 73.650513)"><g><path d="M 11.234375 -22.609375 L 8.1875 -29.796875 L 7.6875 -29.796875 L 8.03125 -22.609375 L 8.03125 0 L 4.140625 0 L 4.140625 -34.84375 L 9.03125 -34.84375 L 20.625 -12.234375 L 23.65625 -5.046875 L 24.15625 -5.046875 L 23.8125 -12.234375 L 23.8125 -34.84375 L 27.703125 -34.84375 L 27.703125 0 L 22.8125 0 Z M 11.234375 -22.609375 "/></g></g></g><g fill="#ffffff" fill-opacity="1"><g transform="translate(544.977701, 73.650513)"><g><path d="M 14.875 -31.34375 L 14.875 0 L 10.890625 0 L 10.890625 -31.34375 L 1.046875 -31.34375 L 1.046875 -34.84375 L 24.71875 -34.84375 L 24.71875 -31.34375 Z M 14.875 -31.34375 "/></g></g></g><g fill="#ffffff" fill-opacity="1"><g transform="translate(568.241423, 73.650513)"><g><path d="M 4.140625 0 L 4.140625 -34.84375 L 23.40625 -34.84375 L 23.40625 -31.34375 L 8.140625 -31.34375 L 8.140625 -19.375 L 22.46875 -19.375 L 22.46875 -15.875 L 8.140625 -15.875 L 8.140625 -3.5 L 23.40625 -3.5 L 23.40625 0 Z M 4.140625 0 "/></g></g></g><g fill="#ffffff" fill-opacity="1"><g transform="translate(592.004385, 73.650513)"><g><path d="M 8.140625 0 L 4.140625 0 L 4.140625 -34.84375 L 16.96875 -34.84375 C 22.726562 -34.84375 25.609375 -31.53125 25.609375 -24.90625 C 25.609375 -19.320312 23.546875 -16.09375 19.421875 -15.21875 L 26.453125 0 L 21.96875 0 L 15.421875 -14.984375 L 8.140625 -14.984375 Z M 16.875 -18.375 C 19.832031 -18.375 21.3125 -19.96875 21.3125 -23.15625 L 21.3125 -26.5625 C 21.3125 -29.75 19.832031 -31.34375 16.875 -31.34375 L 8.140625 -31.34375 L 8.140625 -18.375 Z M 16.875 -18.375 "/></g></g></g><g fill="#ffffff" fill-opacity="1"><g transform="translate(618.363298, 73.650513)"><g/></g></g><g fill="#ffffff" fill-opacity="1"><g transform="translate(626.450508, 73.650513)"><g><path d="M 7.890625 -34.84375 L 7.890625 -12.28125 C 7.890625 -10.71875 8.015625 -9.351562 8.265625 -8.1875 C 8.515625 -7.019531 8.921875 -6.046875 9.484375 -5.265625 C 10.046875 -4.484375 10.800781 -3.898438 11.75 -3.515625 C 12.695312 -3.140625 13.851562 -2.953125 15.21875 -2.953125 C 17.945312 -2.953125 19.851562 -3.722656 20.9375 -5.265625 C 22.019531 -6.816406 22.5625 -9.15625 22.5625 -12.28125 L 22.5625 -34.84375 L 26.5625 -34.84375 L 26.5625 -13.078125 C 26.5625 -10.742188 26.359375 -8.71875 25.953125 -7 C 25.554688 -5.289062 24.914062 -3.867188 24.03125 -2.734375 C 23.15625 -1.609375 21.992188 -0.769531 20.546875 -0.21875 C 19.097656 0.320312 17.320312 0.59375 15.21875 0.59375 C 13.125 0.59375 11.351562 0.320312 9.90625 -0.21875 C 8.457031 -0.769531 7.289062 -1.609375 6.40625 -2.734375 C 5.53125 -3.867188 4.890625 -5.289062 4.484375 -7 C 4.085938 -8.71875 3.890625 -10.742188 3.890625 -13.078125 L 3.890625 -34.84375 Z M 7.890625 -34.84375 "/></g></g></g><g fill="#ffffff" fill-opacity="1"><g transform="translate(654.456893, 73.650513)"><g><path d="M 8.140625 0 L 4.140625 0 L 4.140625 -34.84375 L 16.96875 -34.84375 C 22.726562 -34.84375 25.609375 -31.53125 25.609375 -24.90625 C 25.609375 -19.320312 23.546875 -16.09375 19.421875 -15.21875 L 26.453125 0 L 21.96875 0 L 15.421875 -14.984375 L 8.140625 -14.984375 Z M 16.875 -18.375 C 19.832031 -18.375 21.3125 -19.96875 21.3125 -23.15625 L 21.3125 -26.5625 C 21.3125 -29.75 19.832031 -31.34375 16.875 -31.34375 L 8.140625 -31.34375 L 8.140625 -18.375 Z M 16.875 -18.375 "/></g></g></g><g fill="#ffffff" fill-opacity="1"><g transform="translate(680.815807, 73.650513)"><g><path d="M 4.140625 0 L 4.140625 -34.84375 L 8.140625 -34.84375 L 8.140625 -3.5 L 21.359375 -3.5 L 21.359375 0 Z M 4.140625 0 "/></g></g></g><g fill="#ffffff" fill-opacity="1"><g transform="translate(700.934413, 73.650513)"><g><path d="M 23.765625 0 L 20.671875 -10.4375 L 8.140625 -10.4375 L 5.046875 0 L 1.046875 0 L 11.9375 -34.84375 L 16.921875 -34.84375 L 27.859375 0 Z M 15.71875 -26.953125 L 14.625 -31.296875 L 14.125 -31.296875 L 13.03125 -26.953125 L 9.078125 -13.734375 L 19.765625 -13.734375 Z M 15.71875 -26.953125 "/></g></g></g></svg>
