<svg xmlns="http://www.w3.org/2000/svg" xmlns:xlink="http://www.w3.org/1999/xlink" zoomAndPan="magnify" viewBox="273 30 370 65" preserveAspectRatio="xMidYMid meet" version="1.0"><defs><g/></defs><g fill="#ffffff" fill-opacity="1"><g transform="translate(275.455351, 77.281521)"><g><path d="M 4.859375 0 L 4.859375 -40.828125 L 19.890625 -40.828125 C 26.640625 -40.828125 30.015625 -36.945312 30.015625 -29.1875 C 30.015625 -21.425781 26.640625 -17.546875 19.890625 -17.546875 L 9.53125 -17.546875 L 9.53125 0 Z M 9.53125 -21.640625 L 19.765625 -21.640625 C 23.242188 -21.640625 24.984375 -23.515625 24.984375 -27.265625 L 24.984375 -31.125 C 24.984375 -34.863281 23.242188 -36.734375 19.765625 -36.734375 L 9.53125 -36.734375 Z M 9.53125 -21.640625 "/></g></g></g><g fill="#ffffff" fill-opacity="1"><g transform="translate(304.586873, 77.281521)"><g><path d="M 14.734375 0.703125 C 12.984375 0.703125 11.347656 0.410156 9.828125 -0.171875 C 8.304688 -0.753906 7 -1.6875 5.90625 -2.96875 C 4.8125 -4.257812 3.953125 -5.898438 3.328125 -7.890625 C 2.710938 -9.878906 2.40625 -12.28125 2.40625 -15.09375 C 2.40625 -17.90625 2.710938 -20.300781 3.328125 -22.28125 C 3.953125 -24.269531 4.8125 -25.910156 5.90625 -27.203125 C 7 -28.492188 8.304688 -29.429688 9.828125 -30.015625 C 11.347656 -30.597656 12.984375 -30.890625 14.734375 -30.890625 C 16.492188 -30.890625 18.132812 -30.597656 19.65625 -30.015625 C 21.175781 -29.429688 22.484375 -28.492188 23.578125 -27.203125 C 24.671875 -25.910156 25.523438 -24.269531 26.140625 -22.28125 C 26.765625 -20.300781 27.078125 -17.90625 27.078125 -15.09375 C 27.078125 -12.28125 26.765625 -9.878906 26.140625 -7.890625 C 25.523438 -5.898438 24.671875 -4.257812 23.578125 -2.96875 C 22.484375 -1.6875 21.175781 -0.753906 19.65625 -0.171875 C 18.132812 0.410156 16.492188 0.703125 14.734375 0.703125 Z M 14.734375 -3.28125 C 17.160156 -3.28125 19.023438 -4 20.328125 -5.4375 C 21.628906 -6.882812 22.28125 -9.085938 22.28125 -12.046875 L 22.28125 -18.140625 C 22.28125 -21.097656 21.628906 -23.296875 20.328125 -24.734375 C 19.023438 -26.179688 17.160156 -26.90625 14.734375 -26.90625 C 12.316406 -26.90625 10.457031 -26.179688 9.15625 -24.734375 C 7.851562 -23.296875 7.203125 -21.097656 7.203125 -18.140625 L 7.203125 -12.046875 C 7.203125 -9.085938 7.851562 -6.882812 9.15625 -5.4375 C 10.457031 -4 12.316406 -3.28125 14.734375 -3.28125 Z M 14.734375 -3.28125 "/></g></g></g><g fill="#ffffff" fill-opacity="1"><g transform="translate(331.144489, 77.281521)"><g><path d="M 1.578125 -30.1875 L 5.90625 -30.1875 L 8.828125 -17.078125 L 11.40625 -3.921875 L 12 -3.921875 L 14.96875 -17.078125 L 18.015625 -30.1875 L 23.171875 -30.1875 L 26.203125 -17.078125 L 29.1875 -3.921875 L 29.78125 -3.921875 L 32.34375 -17.078125 L 35.28125 -30.1875 L 39.484375 -30.1875 L 32.234375 0 L 26.625 0 L 22.9375 -14.625 L 20.890625 -25.6875 L 20.296875 -25.6875 L 18.140625 -14.625 L 14.453125 0 L 8.828125 0 Z M 1.578125 -30.1875 "/></g></g></g><g fill="#ffffff" fill-opacity="1"><g transform="translate(369.050702, 77.281521)"><g><path d="M 14.734375 0.703125 C 12.984375 0.703125 11.347656 0.410156 9.828125 -0.171875 C 8.304688 -0.753906 7 -1.6875 5.90625 -2.96875 C 4.8125 -4.257812 3.953125 -5.898438 3.328125 -7.890625 C 2.710938 -9.878906 2.40625 -12.28125 2.40625 -15.09375 C 2.40625 -17.90625 2.710938 -20.300781 3.328125 -22.28125 C 3.953125 -24.269531 4.8125 -25.910156 5.90625 -27.203125 C 7 -28.492188 8.304688 -29.429688 9.828125 -30.015625 C 11.347656 -30.597656 12.984375 -30.890625 14.734375 -30.890625 C 16.492188 -30.890625 18.101562 -30.597656 19.5625 -30.015625 C 21.03125 -29.429688 22.269531 -28.492188 23.28125 -27.203125 C 24.289062 -25.910156 25.078125 -24.269531 25.640625 -22.28125 C 26.210938 -20.300781 26.5 -17.90625 26.5 -15.09375 L 26.5 -13.984375 L 7.140625 -13.984375 L 7.140625 -12.046875 C 7.140625 -9.085938 7.8125 -6.875 9.15625 -5.40625 C 10.5 -3.945312 12.359375 -3.21875 14.734375 -3.21875 C 16.765625 -3.21875 18.421875 -3.65625 19.703125 -4.53125 C 20.992188 -5.40625 22.007812 -6.722656 22.75 -8.484375 L 25.796875 -6.265625 C 24.859375 -4.191406 23.484375 -2.507812 21.671875 -1.21875 C 19.859375 0.0625 17.546875 0.703125 14.734375 0.703125 Z M 14.734375 -27.140625 C 12.316406 -27.140625 10.445312 -26.378906 9.125 -24.859375 C 7.800781 -23.335938 7.140625 -21.097656 7.140625 -18.140625 L 7.140625 -17.375 L 21.765625 -17.375 L 21.765625 -18.140625 C 21.765625 -24.140625 19.421875 -27.140625 14.734375 -27.140625 Z M 14.734375 -27.140625 "/></g></g></g><g fill="#ffffff" fill-opacity="1"><g transform="translate(395.081838, 77.281521)"><g><path d="M 4.453125 0 L 4.453125 -30.1875 L 8.890625 -30.1875 L 8.890625 -24.5625 L 9.484375 -24.5625 C 9.984375 -26.320312 10.847656 -27.695312 12.078125 -28.6875 C 13.304688 -29.6875 14.914062 -30.1875 16.90625 -30.1875 L 18.546875 -30.1875 L 18.546875 -25.6875 L 15.625 -25.6875 C 13.507812 -25.6875 11.859375 -25.21875 10.671875 -24.28125 C 9.484375 -23.34375 8.890625 -21.9375 8.890625 -20.0625 L 8.890625 0 Z M 4.453125 0 "/></g></g></g><g fill="#ffffff" fill-opacity="1"><g transform="translate(411.577815, 77.281521)"><g><path d="M 14.734375 0.703125 C 12.984375 0.703125 11.347656 0.410156 9.828125 -0.171875 C 8.304688 -0.753906 7 -1.6875 5.90625 -2.96875 C 4.8125 -4.257812 3.953125 -5.898438 3.328125 -7.890625 C 2.710938 -9.878906 2.40625 -12.28125 2.40625 -15.09375 C 2.40625 -17.90625 2.710938 -20.300781 3.328125 -22.28125 C 3.953125 -24.269531 4.8125 -25.910156 5.90625 -27.203125 C 7 -28.492188 8.304688 -29.429688 9.828125 -30.015625 C 11.347656 -30.597656 12.984375 -30.890625 14.734375 -30.890625 C 16.492188 -30.890625 18.101562 -30.597656 19.5625 -30.015625 C 21.03125 -29.429688 22.269531 -28.492188 23.28125 -27.203125 C 24.289062 -25.910156 25.078125 -24.269531 25.640625 -22.28125 C 26.210938 -20.300781 26.5 -17.90625 26.5 -15.09375 L 26.5 -13.984375 L 7.140625 -13.984375 L 7.140625 -12.046875 C 7.140625 -9.085938 7.8125 -6.875 9.15625 -5.40625 C 10.5 -3.945312 12.359375 -3.21875 14.734375 -3.21875 C 16.765625 -3.21875 18.421875 -3.65625 19.703125 -4.53125 C 20.992188 -5.40625 22.007812 -6.722656 22.75 -8.484375 L 25.796875 -6.265625 C 24.859375 -4.191406 23.484375 -2.507812 21.671875 -1.21875 C 19.859375 0.0625 17.546875 0.703125 14.734375 0.703125 Z M 14.734375 -27.140625 C 12.316406 -27.140625 10.445312 -26.378906 9.125 -24.859375 C 7.800781 -23.335938 7.140625 -21.097656 7.140625 -18.140625 L 7.140625 -17.375 L 21.765625 -17.375 L 21.765625 -18.140625 C 21.765625 -24.140625 19.421875 -27.140625 14.734375 -27.140625 Z M 14.734375 -27.140625 "/></g></g></g><g fill="#ffffff" fill-opacity="1"><g transform="translate(437.608951, 77.281521)"><g><path d="M 21.765625 -4.90625 L 21.171875 -4.90625 C 20.585938 -2.925781 19.640625 -1.492188 18.328125 -0.609375 C 17.023438 0.265625 15.441406 0.703125 13.578125 0.703125 C 11.773438 0.703125 10.191406 0.332031 8.828125 -0.40625 C 7.460938 -1.144531 6.3125 -2.195312 5.375 -3.5625 C 4.445312 -4.925781 3.75 -6.582031 3.28125 -8.53125 C 2.8125 -10.488281 2.578125 -12.675781 2.578125 -15.09375 C 2.578125 -17.507812 2.8125 -19.691406 3.28125 -21.640625 C 3.75 -23.585938 4.445312 -25.242188 5.375 -26.609375 C 6.3125 -27.984375 7.460938 -29.039062 8.828125 -29.78125 C 10.191406 -30.519531 11.773438 -30.890625 13.578125 -30.890625 C 15.441406 -30.890625 17.023438 -30.445312 18.328125 -29.5625 C 19.640625 -28.6875 20.585938 -27.253906 21.171875 -25.265625 L 21.765625 -25.265625 L 21.765625 -43.296875 L 26.203125 -43.296875 L 26.203125 0 L 21.765625 0 Z M 14.921875 -3.28125 C 15.859375 -3.28125 16.742188 -3.414062 17.578125 -3.6875 C 18.421875 -3.957031 19.144531 -4.34375 19.75 -4.84375 C 20.351562 -5.351562 20.835938 -5.957031 21.203125 -6.65625 C 21.578125 -7.363281 21.765625 -8.148438 21.765625 -9.015625 L 21.765625 -21.171875 C 21.765625 -22.035156 21.578125 -22.816406 21.203125 -23.515625 C 20.835938 -24.210938 20.351562 -24.816406 19.75 -25.328125 C 19.144531 -25.835938 18.421875 -26.226562 17.578125 -26.5 C 16.742188 -26.769531 15.859375 -26.90625 14.921875 -26.90625 C 12.460938 -26.90625 10.585938 -26.132812 9.296875 -24.59375 C 8.015625 -23.050781 7.375 -20.898438 7.375 -18.140625 L 7.375 -12.046875 C 7.375 -9.273438 8.015625 -7.117188 9.296875 -5.578125 C 10.585938 -4.046875 12.460938 -3.28125 14.921875 -3.28125 Z M 14.921875 -3.28125 "/></g></g></g><g fill="#ffffff" fill-opacity="1"><g transform="translate(465.336527, 77.281521)"><g/></g></g><g fill="#ffffff" fill-opacity="1"><g transform="translate(474.812758, 77.281521)"><g><path d="M 4.453125 -43.296875 L 8.890625 -43.296875 L 8.890625 -25.265625 L 9.484375 -25.265625 C 10.066406 -27.253906 11.007812 -28.6875 12.3125 -29.5625 C 13.625 -30.445312 15.210938 -30.890625 17.078125 -30.890625 C 18.867188 -30.890625 20.445312 -30.519531 21.8125 -29.78125 C 23.1875 -29.039062 24.335938 -27.984375 25.265625 -26.609375 C 26.203125 -25.242188 26.90625 -23.585938 27.375 -21.640625 C 27.84375 -19.691406 28.078125 -17.507812 28.078125 -15.09375 C 28.078125 -12.675781 27.84375 -10.488281 27.375 -8.53125 C 26.90625 -6.582031 26.203125 -4.925781 25.265625 -3.5625 C 24.335938 -2.195312 23.1875 -1.144531 21.8125 -0.40625 C 20.445312 0.332031 18.867188 0.703125 17.078125 0.703125 C 15.210938 0.703125 13.625 0.265625 12.3125 -0.609375 C 11.007812 -1.492188 10.066406 -2.925781 9.484375 -4.90625 L 8.890625 -4.90625 L 8.890625 0 L 4.453125 0 Z M 15.734375 -3.28125 C 18.191406 -3.28125 20.0625 -4.046875 21.34375 -5.578125 C 22.632812 -7.117188 23.28125 -9.273438 23.28125 -12.046875 L 23.28125 -18.140625 C 23.28125 -20.898438 22.632812 -23.050781 21.34375 -24.59375 C 20.0625 -26.132812 18.191406 -26.90625 15.734375 -26.90625 C 14.796875 -26.90625 13.90625 -26.769531 13.0625 -26.5 C 12.226562 -26.226562 11.507812 -25.835938 10.90625 -25.328125 C 10.300781 -24.816406 9.8125 -24.210938 9.4375 -23.515625 C 9.070312 -22.816406 8.890625 -22.035156 8.890625 -21.171875 L 8.890625 -9.015625 C 8.890625 -8.148438 9.070312 -7.363281 9.4375 -6.65625 C 9.8125 -5.957031 10.300781 -5.351562 10.90625 -4.84375 C 11.507812 -4.34375 12.226562 -3.957031 13.0625 -3.6875 C 13.90625 -3.414062 14.796875 -3.28125 15.734375 -3.28125 Z M 15.734375 -3.28125 "/></g></g></g><g fill="#ffffff" fill-opacity="1"><g transform="translate(502.540322, 77.281521)"><g><path d="M 20.828125 -30.1875 L 25.15625 -30.1875 L 13.21875 7.71875 C 12.988281 8.5 12.734375 9.148438 12.453125 9.671875 C 12.179688 10.203125 11.84375 10.613281 11.4375 10.90625 C 11.03125 11.195312 10.539062 11.398438 9.96875 11.515625 C 9.40625 11.640625 8.695312 11.703125 7.84375 11.703125 L 4.5625 11.703125 L 4.5625 7.78125 L 9.1875 7.78125 L 10.9375 1.640625 L 0.9375 -30.1875 L 5.375 -30.1875 L 10 -14.96875 L 12.8125 -3.921875 L 13.390625 -3.921875 L 16.203125 -14.96875 Z M 20.828125 -30.1875 "/></g></g></g><g fill="#ffffff" fill-opacity="1"><g transform="translate(525.997574, 77.281521)"><g/></g></g><g fill="#ffffff" fill-opacity="1"><g transform="translate(535.473782, 77.281521)"><g><path d="M 9.25 -40.828125 L 9.25 -14.390625 C 9.25 -12.554688 9.394531 -10.957031 9.6875 -9.59375 C 9.976562 -8.226562 10.453125 -7.085938 11.109375 -6.171875 C 11.773438 -5.253906 12.660156 -4.570312 13.765625 -4.125 C 14.878906 -3.675781 16.238281 -3.453125 17.84375 -3.453125 C 21.039062 -3.453125 23.269531 -4.359375 24.53125 -6.171875 C 25.800781 -7.984375 26.4375 -10.722656 26.4375 -14.390625 L 26.4375 -40.828125 L 31.125 -40.828125 L 31.125 -15.328125 C 31.125 -12.597656 30.890625 -10.226562 30.421875 -8.21875 C 29.953125 -6.207031 29.203125 -4.539062 28.171875 -3.21875 C 27.140625 -1.894531 25.773438 -0.910156 24.078125 -0.265625 C 22.378906 0.378906 20.300781 0.703125 17.84375 0.703125 C 15.382812 0.703125 13.304688 0.378906 11.609375 -0.265625 C 9.910156 -0.910156 8.546875 -1.894531 7.515625 -3.21875 C 6.484375 -4.539062 5.734375 -6.207031 5.265625 -8.21875 C 4.796875 -10.226562 4.5625 -12.597656 4.5625 -15.328125 L 4.5625 -40.828125 Z M 9.25 -40.828125 "/></g></g></g><g fill="#ffffff" fill-opacity="1"><g transform="translate(568.290688, 77.281521)"><g><path d="M 14.859375 -20.234375 L 9.53125 -13.578125 L 9.53125 0 L 4.859375 0 L 4.859375 -40.828125 L 9.53125 -40.828125 L 9.53125 -27.203125 L 9.1875 -18.78125 L 9.765625 -18.78125 L 15.796875 -27.203125 L 25.96875 -40.828125 L 31.359375 -40.828125 L 17.90625 -23.34375 L 32.234375 0 L 26.734375 0 Z M 14.859375 -20.234375 "/></g></g></g><g fill="#ffffff" fill-opacity="1"><g transform="translate(598.943156, 77.281521)"><g><path d="M 17.84375 0.703125 C 15.539062 0.703125 13.472656 0.285156 11.640625 -0.546875 C 9.804688 -1.390625 8.253906 -2.671875 6.984375 -4.390625 C 5.722656 -6.109375 4.75 -8.300781 4.0625 -10.96875 C 3.382812 -13.632812 3.046875 -16.785156 3.046875 -20.421875 C 3.046875 -24.046875 3.382812 -27.191406 4.0625 -29.859375 C 4.75 -32.535156 5.722656 -34.726562 6.984375 -36.4375 C 8.253906 -38.15625 9.804688 -39.429688 11.640625 -40.265625 C 13.472656 -41.109375 15.539062 -41.53125 17.84375 -41.53125 C 21.195312 -41.53125 23.882812 -40.816406 25.90625 -39.390625 C 27.9375 -37.972656 29.539062 -35.800781 30.71875 -32.875 L 26.96875 -30.59375 C 26.226562 -32.820312 25.164062 -34.507812 23.78125 -35.65625 C 22.394531 -36.800781 20.414062 -37.375 17.84375 -37.375 C 14.71875 -37.375 12.304688 -36.253906 10.609375 -34.015625 C 8.921875 -31.773438 8.078125 -28.765625 8.078125 -24.984375 L 8.078125 -15.859375 C 8.078125 -12.066406 8.921875 -9.050781 10.609375 -6.8125 C 12.304688 -4.570312 14.71875 -3.453125 17.84375 -3.453125 C 20.5 -3.453125 22.546875 -4.066406 23.984375 -5.296875 C 25.429688 -6.523438 26.523438 -8.304688 27.265625 -10.640625 L 31 -8.3125 C 29.832031 -5.382812 28.1875 -3.148438 26.0625 -1.609375 C 23.9375 -0.0664062 21.195312 0.703125 17.84375 0.703125 Z M 17.84375 0.703125 "/></g></g></g><g fill="#ffffff" fill-opacity="1"><g transform="translate(628.835157, 77.281521)"><g><path d="M 7.25 0.703125 C 4.945312 0.703125 3.796875 -0.289062 3.796875 -2.28125 L 3.796875 -3.21875 C 3.796875 -5.207031 4.945312 -6.203125 7.25 -6.203125 C 9.550781 -6.203125 10.703125 -5.207031 10.703125 -3.21875 L 10.703125 -2.28125 C 10.703125 -0.289062 9.550781 0.703125 7.25 0.703125 Z M 7.25 0.703125 "/></g></g></g></svg>