<svg xmlns="http://www.w3.org/2000/svg" width="1200" height="630" viewBox="0 0 1200 630">
  <!-- Light brand share card — UKC. / Duotone Pro Center Urla -->
  <rect width="1200" height="630" fill="#ffffff"/>

  <!-- Subtle framed 'card' border (light slate) -->
  <rect x="28" y="28" width="1144" height="574" rx="18" fill="none" stroke="#e6e8eb" stroke-width="2"/>

  <!-- D logo mark (from DPSLOGOS), centered, ~141px tall -->
  <g transform="translate(538, 92) scale(0.5)">
    <path fill="#0f1115" d="M 247.609375 109.925781 L 247.609375 173.359375 C 247.609375 185.023438 242.769531 191.855469 232.816406 197.542969 L 79.476562 282.894531 L 79.476562 227.988281 C 79.476562 219.457031 82.890625 213.195312 90.289062 209.214844 L 179.902344 159.144531 C 183.316406 157.160156 185.308594 153.738281 185.308594 149.757812 L 185.308594 133.535156 C 185.308594 129.546875 183.324219 126.136719 179.902344 124.140625 L 90.289062 74.082031 C 83.179688 70.089844 79.476562 63.835938 79.476562 55.308594 L 79.476562 0.109375 L 232.816406 85.742188 C 242.769531 91.148438 247.609375 98.261719 247.609375 109.925781 M 0.390625 241.074219 L 0.390625 41.929688 L 53.867188 70.378906 C 60.703125 74.082031 64.683594 80.058594 64.683594 88.585938 L 64.683594 194.417969 C 64.683594 202.667969 60.703125 209.214844 53.867188 212.914062 Z M 0.390625 241.074219"/>
  </g>

  <!-- Wordmark -->
  <text x="600" y="378" text-anchor="middle" font-family="Segoe UI, Arial, Helvetica, sans-serif" font-size="132" font-weight="800" fill="#0f1115" letter-spacing="1">UKC.</text>

  <!-- Slate accent -->
  <rect x="555" y="404" width="90" height="4" rx="2" fill="#4b4f54"/>

  <!-- Center name -->
  <text x="600" y="460" text-anchor="middle" font-family="Segoe UI, Arial, Helvetica, sans-serif" font-size="38" font-weight="600" fill="#4b4f54">Duotone Pro Center · Urla</text>

  <!-- Tagline -->
  <text x="600" y="512" text-anchor="middle" font-family="Segoe UI, Arial, Helvetica, sans-serif" font-size="26" font-weight="500" fill="#9aa1a9" letter-spacing="7">KITESURF · WING · FOIL</text>
</svg>
