<svg xmlns="http://www.w3.org/2000/svg" xmlns:xlink="http://www.w3.org/1999/xlink" width="646.5" zoomAndPan="magnify" viewBox="0 0 323.25 45" height="90" preserveAspectRatio="xMidYMid meet" version="1.0"><defs><clipPath id="a7453a2be9"><path d="M 6.136719 6.425781 L 33.949219 6.425781 L 33.949219 38.261719 L 6.136719 38.261719 Z M 6.136719 6.425781 " clip-rule="nonzero"/></clipPath><clipPath id="f7086e3313"><path d="M 6.136719 33.535156 L 6.136719 11.136719 L 12.152344 14.328125 C 12.921875 14.746094 13.367188 15.414062 13.367188 16.375 L 13.367188 28.285156 C 13.367188 29.214844 12.921875 29.953125 12.152344 30.359375 Z M 33.949219 18.777344 L 33.949219 25.910156 C 33.949219 27.226562 33.402344 27.996094 32.285156 28.636719 L 15.035156 38.242188 L 15.035156 32.066406 C 15.035156 31.109375 15.425781 30.402344 16.253906 29.953125 L 26.339844 24.316406 C 26.726562 24.09375 26.949219 23.707031 26.949219 23.257812 L 26.949219 21.441406 C 26.949219 20.992188 26.71875 20.613281 26.339844 20.382812 L 16.253906 14.746094 C 15.453125 14.296875 15.035156 13.589844 15.035156 12.632812 L 15.035156 6.425781 L 32.285156 16.0625 C 33.402344 16.671875 33.949219 17.472656 33.949219 18.789062 " clip-rule="nonzero"/></clipPath><clipPath id="1b6a259dff"><path d="M 0.136719 0.425781 L 27.949219 0.425781 L 27.949219 32.261719 L 0.136719 32.261719 Z M 0.136719 0.425781 " clip-rule="nonzero"/></clipPath><clipPath id="545fbd4b75"><path d="M 0.136719 27.535156 L 0.136719 5.136719 L 6.152344 8.328125 C 6.921875 8.746094 7.367188 9.414062 7.367188 10.375 L 7.367188 22.285156 C 7.367188 23.214844 6.921875 23.953125 6.152344 24.359375 Z M 27.949219 12.777344 L 27.949219 19.910156 C 27.949219 21.226562 27.402344 21.996094 26.285156 22.636719 L 9.035156 32.242188 L 9.035156 26.066406 C 9.035156 25.109375 9.425781 24.402344 10.253906 23.953125 L 20.339844 18.316406 C 20.726562 18.09375 20.949219 17.707031 20.949219 17.257812 L 20.949219 15.441406 C 20.949219 14.992188 20.71875 14.613281 20.339844 14.382812 L 10.253906 8.746094 C 9.453125 8.296875 9.035156 7.589844 9.035156 6.632812 L 9.035156 0.425781 L 26.285156 10.0625 C 27.402344 10.671875 27.949219 11.472656 27.949219 12.789062 " clip-rule="nonzero"/></clipPath><clipPath id="20202a6d28"><rect x="0" width="28" y="0" height="33"/></clipPath><clipPath id="707c2b2c18"><path d="M 63.390625 11.113281 L 78.484375 11.113281 L 78.484375 33.945312 L 63.390625 33.945312 Z M 63.390625 11.113281 " clip-rule="nonzero"/></clipPath><clipPath id="f4426c6e3d"><path d="M 63.4375 26.523438 L 63.4375 11.128906 L 67.597656 11.128906 L 67.597656 26.523438 C 67.597656 28.769531 68.714844 30.015625 70.828125 30.015625 L 70.988281 30.015625 C 73.105469 30.015625 74.222656 28.769531 74.222656 26.523438 L 74.222656 11.128906 L 78.382812 11.128906 L 78.382812 26.523438 C 78.382812 31.074219 75.699219 33.859375 71.5 33.859375 L 70.320312 33.859375 C 66.128906 33.859375 63.4375 31.074219 63.4375 26.523438 " clip-rule="nonzero"/></clipPath><clipPath id="e0ef00fa77"><path d="M 0.390625 0.113281 L 15.484375 0.113281 L 15.484375 22.945312 L 0.390625 22.945312 Z M 0.390625 0.113281 " clip-rule="nonzero"/></clipPath><clipPath id="56b317e08e"><path d="M 0.4375 15.523438 L 0.4375 0.128906 L 4.597656 0.128906 L 4.597656 15.523438 C 4.597656 17.769531 5.714844 19.015625 7.828125 19.015625 L 7.988281 19.015625 C 10.105469 19.015625 11.222656 17.769531 11.222656 15.523438 L 11.222656 0.128906 L 15.382812 0.128906 L 15.382812 15.523438 C 15.382812 20.074219 12.699219 22.859375 8.5 22.859375 L 7.320312 22.859375 C 3.128906 22.859375 0.4375 20.074219 0.4375 15.523438 " clip-rule="nonzero"/></clipPath><clipPath id="fc9717b014"><rect x="0" width="16" y="0" height="23"/></clipPath><clipPath id="992dc8a623"><path d="M 45.074219 11.113281 L 60.164062 11.113281 L 60.164062 33.558594 L 45.074219 33.558594 Z M 45.074219 11.113281 " clip-rule="nonzero"/></clipPath><clipPath id="8cec51ae6a"><path d="M 53.132812 11.128906 C 57.449219 11.128906 60.074219 13.8125 60.074219 18.203125 L 60.074219 26.464844 C 60.074219 30.855469 57.449219 33.539062 53.132812 33.539062 L 45.160156 33.539062 L 45.160156 11.128906 Z M 55.914062 26.304688 L 55.914062 18.363281 C 55.914062 16.089844 54.886719 14.972656 52.742188 14.972656 L 49.320312 14.972656 L 49.320312 29.695312 L 52.742188 29.695312 C 54.886719 29.695312 55.914062 28.578125 55.914062 26.304688 " clip-rule="nonzero"/></clipPath><clipPath id="af55ce1217"><path d="M 0.0742188 0.113281 L 15.101562 0.113281 L 15.101562 22.558594 L 0.0742188 22.558594 Z M 0.0742188 0.113281 " clip-rule="nonzero"/></clipPath><clipPath id="54baf6ba67"><path d="M 8.132812 0.128906 C 12.449219 0.128906 15.074219 2.8125 15.074219 7.203125 L 15.074219 15.464844 C 15.074219 19.855469 12.449219 22.539062 8.132812 22.539062 L 0.160156 22.539062 L 0.160156 0.128906 Z M 10.914062 15.304688 L 10.914062 7.363281 C 10.914062 5.089844 9.886719 3.972656 7.742188 3.972656 L 4.320312 3.972656 L 4.320312 18.695312 L 7.742188 18.695312 C 9.886719 18.695312 10.914062 17.578125 10.914062 15.304688 " clip-rule="nonzero"/></clipPath><clipPath id="c28f6c0df7"><rect x="0" width="16" y="0" height="23"/></clipPath><clipPath id="7cb6b4c953"><path d="M 81.707031 10.722656 L 96.800781 10.722656 L 96.800781 33.945312 L 81.707031 33.945312 Z M 81.707031 10.722656 " clip-rule="nonzero"/></clipPath><clipPath id="f5ba59672a"><path d="M 81.753906 26.523438 L 81.753906 18.144531 C 81.753906 13.59375 84.4375 10.8125 88.636719 10.8125 L 89.824219 10.8125 C 94.015625 10.8125 96.710938 13.59375 96.710938 18.144531 L 96.710938 26.535156 C 96.710938 31.082031 94.027344 33.867188 89.824219 33.867188 L 88.628906 33.867188 C 84.4375 33.867188 81.746094 31.082031 81.746094 26.535156 M 92.53125 26.535156 L 92.53125 18.144531 C 92.53125 15.898438 91.410156 14.652344 89.296875 14.652344 L 89.136719 14.652344 C 87.023438 14.652344 85.875 15.898438 85.875 18.144531 L 85.875 26.535156 C 85.875 28.738281 87.023438 30.027344 89.136719 30.027344 L 89.296875 30.027344 C 91.410156 30.027344 92.53125 28.75 92.53125 26.535156 " clip-rule="nonzero"/></clipPath><clipPath id="abd29ccb7c"><path d="M 0.707031 0.722656 L 15.734375 0.722656 L 15.734375 23.945312 L 0.707031 23.945312 Z M 0.707031 0.722656 " clip-rule="nonzero"/></clipPath><clipPath id="5441e38a32"><path d="M 0.753906 16.523438 L 0.753906 8.144531 C 0.753906 3.59375 3.4375 0.8125 7.636719 0.8125 L 8.824219 0.8125 C 13.015625 0.8125 15.710938 3.59375 15.710938 8.144531 L 15.710938 16.535156 C 15.710938 21.082031 13.027344 23.867188 8.824219 23.867188 L 7.628906 23.867188 C 3.4375 23.867188 0.746094 21.082031 0.746094 16.535156 M 11.53125 16.535156 L 11.53125 8.144531 C 11.53125 5.898438 10.410156 4.652344 8.296875 4.652344 L 8.136719 4.652344 C 6.023438 4.652344 4.875 5.898438 4.875 8.144531 L 4.875 16.535156 C 4.875 18.738281 6.023438 20.027344 8.136719 20.027344 L 8.296875 20.027344 C 10.410156 20.027344 11.53125 18.75 11.53125 16.535156 " clip-rule="nonzero"/></clipPath><clipPath id="3c2185ca49"><rect x="0" width="16" y="0" height="24"/></clipPath><clipPath id="4b49017f9f"><path d="M 98.785156 11.128906 L 113.628906 11.128906 L 113.628906 14.871094 L 98.785156 14.871094 Z M 104.121094 14.871094 L 108.292969 14.871094 L 108.292969 33.527344 L 104.121094 33.527344 Z M 104.121094 14.871094 " clip-rule="nonzero"/></clipPath><clipPath id="306d52c268"><path d="M 0.785156 0.128906 L 15.628906 0.128906 L 15.628906 3.871094 L 0.785156 3.871094 Z M 6.121094 3.871094 L 10.292969 3.871094 L 10.292969 22.527344 L 6.121094 22.527344 Z M 6.121094 3.871094 " clip-rule="nonzero"/></clipPath><clipPath id="c3b2bbcd8a"><rect x="0" width="16" y="0" height="23"/></clipPath><clipPath id="643326d7db"><path d="M 115.632812 10.722656 L 130.726562 10.722656 L 130.726562 33.945312 L 115.632812 33.945312 Z M 115.632812 10.722656 " clip-rule="nonzero"/></clipPath><clipPath id="974bc5384a"><path d="M 115.714844 26.523438 L 115.714844 18.144531 C 115.714844 13.59375 118.398438 10.8125 122.597656 10.8125 L 123.785156 10.8125 C 127.976562 10.8125 130.671875 13.59375 130.671875 18.144531 L 130.671875 26.535156 C 130.671875 31.082031 127.988281 33.867188 123.785156 33.867188 L 122.597656 33.867188 C 118.410156 33.867188 115.714844 31.082031 115.714844 26.535156 M 126.5 26.535156 L 126.5 18.144531 C 126.5 15.898438 125.382812 14.652344 123.269531 14.652344 L 123.109375 14.652344 C 120.992188 14.652344 119.847656 15.898438 119.847656 18.144531 L 119.847656 26.535156 C 119.847656 28.738281 120.992188 30.027344 123.109375 30.027344 L 123.269531 30.027344 C 125.382812 30.027344 126.5 28.75 126.5 26.535156 " clip-rule="nonzero"/></clipPath><clipPath id="a0e977cdf1"><path d="M 0.652344 0.722656 L 15.726562 0.722656 L 15.726562 23.945312 L 0.652344 23.945312 Z M 0.652344 0.722656 " clip-rule="nonzero"/></clipPath><clipPath id="f62c5a31e8"><path d="M 0.714844 16.523438 L 0.714844 8.144531 C 0.714844 3.59375 3.398438 0.8125 7.597656 0.8125 L 8.785156 0.8125 C 12.976562 0.8125 15.671875 3.59375 15.671875 8.144531 L 15.671875 16.535156 C 15.671875 21.082031 12.988281 23.867188 8.785156 23.867188 L 7.597656 23.867188 C 3.410156 23.867188 0.714844 21.082031 0.714844 16.535156 M 11.5 16.535156 L 11.5 8.144531 C 11.5 5.898438 10.382812 4.652344 8.269531 4.652344 L 8.109375 4.652344 C 5.992188 4.652344 4.847656 5.898438 4.847656 8.144531 L 4.847656 16.535156 C 4.847656 18.738281 5.992188 20.027344 8.109375 20.027344 L 8.269531 20.027344 C 10.382812 20.027344 11.5 18.75 11.5 16.535156 " clip-rule="nonzero"/></clipPath><clipPath id="bb44aa9f89"><rect x="0" width="16" y="0" height="24"/></clipPath><clipPath id="7e835fe71b"><path d="M 134.082031 11.113281 L 150.207031 11.113281 L 150.207031 33.558594 L 134.082031 33.558594 Z M 134.082031 11.113281 " clip-rule="nonzero"/></clipPath><clipPath id="3b9292c6a8"><path d="M 139.441406 11.128906 L 146.035156 26.523438 L 146.035156 11.128906 L 150.195312 11.128906 L 150.195312 33.539062 L 144.945312 33.539062 L 138.351562 18.144531 L 138.351562 33.539062 L 134.183594 33.539062 L 134.183594 11.128906 Z M 139.441406 11.128906 " clip-rule="nonzero"/></clipPath><clipPath id="493d02756d"><path d="M 0.0898438 0.113281 L 16.207031 0.113281 L 16.207031 22.558594 L 0.0898438 22.558594 Z M 0.0898438 0.113281 " clip-rule="nonzero"/></clipPath><clipPath id="f9376a0ec5"><path d="M 5.441406 0.128906 L 12.035156 15.523438 L 12.035156 0.128906 L 16.195312 0.128906 L 16.195312 22.539062 L 10.945312 22.539062 L 4.351562 7.144531 L 4.351562 22.539062 L 0.183594 22.539062 L 0.183594 0.128906 Z M 5.441406 0.128906 " clip-rule="nonzero"/></clipPath><clipPath id="238d903ba5"><rect x="0" width="17" y="0" height="23"/></clipPath><clipPath id="de804af6f3"><path d="M 154.035156 11.128906 L 166.746094 11.128906 L 166.746094 14.972656 L 154.035156 14.972656 Z M 154.035156 14.972656 L 158.195312 14.972656 L 158.195312 20.089844 L 154.035156 20.089844 Z M 154.035156 20.089844 L 166.097656 20.089844 L 166.097656 23.929688 L 154.035156 23.929688 Z M 154.035156 23.929688 L 158.195312 23.929688 L 158.195312 29.6875 L 154.035156 29.6875 Z M 154.035156 29.6875 L 167.066406 29.6875 L 167.066406 33.527344 L 154.035156 33.527344 Z M 154.035156 29.6875 " clip-rule="nonzero"/></clipPath><clipPath id="f57a3e3f26"><path d="M 0.0351562 0.128906 L 12.746094 0.128906 L 12.746094 3.972656 L 0.0351562 3.972656 Z M 0.0351562 3.972656 L 4.195312 3.972656 L 4.195312 9.089844 L 0.0351562 9.089844 Z M 0.0351562 9.089844 L 12.097656 9.089844 L 12.097656 12.929688 L 0.0351562 12.929688 Z M 0.0351562 12.929688 L 4.195312 12.929688 L 4.195312 18.6875 L 0.0351562 18.6875 Z M 0.0351562 18.6875 L 13.066406 18.6875 L 13.066406 22.527344 L 0.0351562 22.527344 Z M 0.0351562 18.6875 " clip-rule="nonzero"/></clipPath><clipPath id="f0ea4d0780"><rect x="0" width="14" y="0" height="23"/></clipPath><clipPath id="c73ed9fc09"><path d="M 189.046875 13.320312 L 200.171875 13.320312 L 200.171875 31.34375 L 189.046875 31.34375 Z M 189.046875 13.320312 " clip-rule="nonzero"/></clipPath><clipPath id="98efaff4f4"><path d="M 194.457031 22.640625 C 196.722656 22.640625 197.878906 21.433594 197.878906 19.046875 C 197.878906 16.582031 196.722656 15.316406 194.457031 15.316406 L 191.324219 15.316406 L 191.324219 22.640625 Z M 189.140625 13.339844 L 194.71875 13.339844 C 198.078125 13.339844 200.066406 15.425781 200.066406 19.046875 C 200.066406 22.621094 198.109375 24.644531 194.71875 24.644531 L 191.324219 24.644531 L 191.324219 31.328125 L 189.140625 31.328125 Z M 189.140625 13.339844 " clip-rule="nonzero"/></clipPath><clipPath id="142a39d7d0"><path d="M 0.046875 0.320312 L 11.171875 0.320312 L 11.171875 18.34375 L 0.046875 18.34375 Z M 0.046875 0.320312 " clip-rule="nonzero"/></clipPath><clipPath id="3d2a01483b"><path d="M 5.457031 9.640625 C 7.722656 9.640625 8.878906 8.433594 8.878906 6.046875 C 8.878906 3.582031 7.722656 2.316406 5.457031 2.316406 L 2.324219 2.316406 L 2.324219 9.640625 Z M 0.140625 0.339844 L 5.71875 0.339844 C 9.078125 0.339844 11.066406 2.425781 11.066406 6.046875 C 11.066406 9.621094 9.109375 11.644531 5.71875 11.644531 L 2.324219 11.644531 L 2.324219 18.328125 L 0.140625 18.328125 Z M 0.140625 0.339844 " clip-rule="nonzero"/></clipPath><clipPath id="07bd63f503"><rect x="0" width="12" y="0" height="19"/></clipPath><clipPath id="b7eb5ed931"><path d="M 202.285156 13.320312 L 213.523438 13.320312 L 213.523438 31.34375 L 202.285156 31.34375 Z M 202.285156 13.320312 " clip-rule="nonzero"/></clipPath><clipPath id="31d4a32dfe"><path d="M 207.898438 21.949219 C 210.003906 21.949219 211.03125 20.875 211.03125 18.636719 C 211.03125 16.453125 210.003906 15.324219 207.898438 15.324219 L 204.554688 15.324219 L 204.554688 21.960938 Z M 202.371094 13.339844 L 208.15625 13.339844 C 211.417969 13.339844 213.214844 15.246094 213.214844 18.636719 C 213.214844 21.261719 212.15625 23.007812 210.183594 23.648438 L 213.472656 31.328125 L 211.128906 31.328125 L 207.996094 23.957031 L 204.554688 23.957031 L 204.554688 31.328125 L 202.371094 31.328125 Z M 202.371094 13.339844 " clip-rule="nonzero"/></clipPath><clipPath id="15c23f0167"><path d="M 0.332031 0.320312 L 11.523438 0.320312 L 11.523438 18.34375 L 0.332031 18.34375 Z M 0.332031 0.320312 " clip-rule="nonzero"/></clipPath><clipPath id="9caf6cb838"><path d="M 5.898438 8.949219 C 8.003906 8.949219 9.03125 7.875 9.03125 5.636719 C 9.03125 3.453125 8.003906 2.324219 5.898438 2.324219 L 2.554688 2.324219 L 2.554688 8.960938 Z M 0.371094 0.339844 L 6.15625 0.339844 C 9.417969 0.339844 11.214844 2.246094 11.214844 5.636719 C 11.214844 8.261719 10.15625 10.007812 8.183594 10.648438 L 11.472656 18.328125 L 9.128906 18.328125 L 5.996094 10.957031 L 2.554688 10.957031 L 2.554688 18.328125 L 0.371094 18.328125 Z M 0.371094 0.339844 " clip-rule="nonzero"/></clipPath><clipPath id="df03b12656"><rect x="0" width="12" y="0" height="19"/></clipPath><clipPath id="7b72fbf66d"><path d="M 215.523438 13 L 227.09375 13 L 227.09375 31.675781 L 215.523438 31.675781 Z M 215.523438 13 " clip-rule="nonzero"/></clipPath><clipPath id="11acb2b629"><path d="M 221.277344 29.601562 C 223.671875 29.601562 224.847656 28.265625 224.847656 25.722656 L 224.847656 18.9375 C 224.847656 16.394531 223.671875 15.058594 221.277344 15.058594 C 218.910156 15.058594 217.734375 16.394531 217.734375 18.9375 L 217.734375 25.722656 C 217.734375 28.265625 218.910156 29.601562 221.277344 29.601562 M 215.550781 25.722656 L 215.550781 18.9375 C 215.550781 15.214844 217.632812 13.082031 221.277344 13.082031 C 224.917969 13.082031 227.03125 15.214844 227.03125 18.9375 L 227.03125 25.722656 C 227.03125 29.453125 224.925781 31.578125 221.277344 31.578125 C 217.625 31.578125 215.550781 29.441406 215.550781 25.722656 " clip-rule="nonzero"/></clipPath><clipPath id="128f27365f"><path d="M 0.523438 0 L 12.09375 0 L 12.09375 18.660156 L 0.523438 18.660156 Z M 0.523438 0 " clip-rule="nonzero"/></clipPath><clipPath id="ce86dc0ac7"><path d="M 6.277344 16.601562 C 8.671875 16.601562 9.847656 15.265625 9.847656 12.722656 L 9.847656 5.9375 C 9.847656 3.394531 8.671875 2.058594 6.277344 2.058594 C 3.910156 2.058594 2.734375 3.394531 2.734375 5.9375 L 2.734375 12.722656 C 2.734375 15.265625 3.910156 16.601562 6.277344 16.601562 M 0.550781 12.722656 L 0.550781 5.9375 C 0.550781 2.214844 2.632812 0.0820312 6.277344 0.0820312 C 9.917969 0.0820312 12.03125 2.214844 12.03125 5.9375 L 12.03125 12.722656 C 12.03125 16.453125 9.925781 18.578125 6.277344 18.578125 C 2.625 18.578125 0.550781 16.441406 0.550781 12.722656 " clip-rule="nonzero"/></clipPath><clipPath id="82341369e6"><rect x="0" width="13" y="0" height="19"/></clipPath><clipPath id="780ff9b78d"><path d="M 234.324219 13 L 245.785156 13 L 245.785156 31.675781 L 234.324219 31.675781 Z M 234.324219 13 " clip-rule="nonzero"/></clipPath><clipPath id="f3ffb2aaf3"><path d="M 234.40625 25.75 L 234.40625 18.917969 C 234.40625 15.214844 236.460938 13.082031 240.03125 13.082031 C 243.503906 13.082031 245.578125 15.136719 245.6875 18.527344 L 243.503906 18.527344 C 243.425781 16.164062 242.21875 15.058594 240.03125 15.058594 C 237.71875 15.058594 236.589844 16.394531 236.589844 18.957031 L 236.589844 25.691406 C 236.589844 28.265625 237.71875 29.59375 240.03125 29.59375 C 242.21875 29.59375 243.425781 28.484375 243.503906 26.121094 L 245.6875 26.121094 C 245.589844 29.511719 243.503906 31.570312 240.03125 31.570312 C 236.460938 31.570312 234.40625 29.433594 234.40625 25.730469 " clip-rule="nonzero"/></clipPath><clipPath id="b9bb970a7e"><path d="M 0.324219 0 L 11.785156 0 L 11.785156 18.660156 L 0.324219 18.660156 Z M 0.324219 0 " clip-rule="nonzero"/></clipPath><clipPath id="13ac4d853f"><path d="M 0.40625 12.75 L 0.40625 5.917969 C 0.40625 2.214844 2.460938 0.0820312 6.03125 0.0820312 C 9.503906 0.0820312 11.578125 2.136719 11.6875 5.527344 L 9.503906 5.527344 C 9.425781 3.164062 8.21875 2.058594 6.03125 2.058594 C 3.71875 2.058594 2.589844 3.394531 2.589844 5.957031 L 2.589844 12.691406 C 2.589844 15.265625 3.71875 16.59375 6.03125 16.59375 C 8.21875 16.59375 9.425781 15.484375 9.503906 13.121094 L 11.6875 13.121094 C 11.589844 16.511719 9.503906 18.570312 6.03125 18.570312 C 2.460938 18.570312 0.40625 16.433594 0.40625 12.730469 " clip-rule="nonzero"/></clipPath><clipPath id="af84f7a343"><rect x="0" width="12" y="0" height="19"/></clipPath><clipPath id="21b56f6efe"><path d="M 248.253906 13.339844 L 257.582031 13.339844 L 257.582031 15.316406 L 248.253906 15.316406 Z M 248.253906 15.316406 L 250.4375 15.316406 L 250.4375 21.203125 L 248.253906 21.203125 Z M 248.253906 21.203125 L 257.074219 21.203125 L 257.074219 23.207031 L 248.253906 23.207031 Z M 248.253906 23.207031 L 250.4375 23.207031 L 250.4375 29.34375 L 248.253906 29.34375 Z M 248.253906 29.34375 L 257.839844 29.34375 L 257.839844 31.320312 L 248.253906 31.320312 Z M 248.253906 29.34375 " clip-rule="nonzero"/></clipPath><clipPath id="cf3c73f6e2"><path d="M 0.253906 0.339844 L 9.582031 0.339844 L 9.582031 2.316406 L 0.253906 2.316406 Z M 0.253906 2.316406 L 2.4375 2.316406 L 2.4375 8.203125 L 0.253906 8.203125 Z M 0.253906 8.203125 L 9.074219 8.203125 L 9.074219 10.207031 L 0.253906 10.207031 Z M 0.253906 10.207031 L 2.4375 10.207031 L 2.4375 16.34375 L 0.253906 16.34375 Z M 0.253906 16.34375 L 9.839844 16.34375 L 9.839844 18.320312 L 0.253906 18.320312 Z M 0.253906 16.34375 " clip-rule="nonzero"/></clipPath><clipPath id="e6f6d01f45"><rect x="0" width="10" y="0" height="19"/></clipPath><clipPath id="b13c5f445e"><path d="M 260.46875 13.320312 L 271.925781 13.320312 L 271.925781 31.34375 L 260.46875 31.34375 Z M 260.46875 13.320312 " clip-rule="nonzero"/></clipPath><clipPath id="e951a20010"><path d="M 260.535156 13.339844 L 263.46875 13.339844 L 269.8125 28.445312 L 269.8125 13.339844 L 271.867188 13.339844 L 271.867188 31.328125 L 268.90625 31.328125 L 262.589844 16.214844 L 262.589844 31.328125 L 260.535156 31.328125 Z M 260.535156 13.339844 " clip-rule="nonzero"/></clipPath><clipPath id="000645c923"><path d="M 0.515625 0.320312 L 11.925781 0.320312 L 11.925781 18.34375 L 0.515625 18.34375 Z M 0.515625 0.320312 " clip-rule="nonzero"/></clipPath><clipPath id="a9c59a93d2"><path d="M 0.535156 0.339844 L 3.46875 0.339844 L 9.8125 15.445312 L 9.8125 0.339844 L 11.867188 0.339844 L 11.867188 18.328125 L 8.90625 18.328125 L 2.589844 3.214844 L 2.589844 18.328125 L 0.535156 18.328125 Z M 0.535156 0.339844 " clip-rule="nonzero"/></clipPath><clipPath id="862a9bcb92"><rect x="0" width="12" y="0" height="19"/></clipPath><clipPath id="b6d7642a8a"><path d="M 273.894531 13.339844 L 285.175781 13.339844 L 285.175781 15.316406 L 273.894531 15.316406 Z M 278.441406 15.316406 L 280.628906 15.316406 L 280.628906 31.328125 L 278.441406 31.328125 Z M 278.441406 15.316406 " clip-rule="nonzero"/></clipPath><clipPath id="c500b41d92"><path d="M 0.894531 0.339844 L 12.175781 0.339844 L 12.175781 2.316406 L 0.894531 2.316406 Z M 5.441406 2.316406 L 7.628906 2.316406 L 7.628906 18.328125 L 5.441406 18.328125 Z M 5.441406 2.316406 " clip-rule="nonzero"/></clipPath><clipPath id="5ba8761f12"><rect x="0" width="13" y="0" height="19"/></clipPath><clipPath id="72ca22e527"><path d="M 287.203125 13.339844 L 296.53125 13.339844 L 296.53125 15.316406 L 287.203125 15.316406 Z M 287.203125 15.316406 L 289.386719 15.316406 L 289.386719 21.203125 L 287.203125 21.203125 Z M 287.203125 21.203125 L 296.023438 21.203125 L 296.023438 23.207031 L 287.203125 23.207031 Z M 287.203125 23.207031 L 289.386719 23.207031 L 289.386719 29.34375 L 287.203125 29.34375 Z M 287.203125 29.34375 L 296.789062 29.34375 L 296.789062 31.320312 L 287.203125 31.320312 Z M 287.203125 29.34375 " clip-rule="nonzero"/></clipPath><clipPath id="afef4f17b2"><path d="M 0.203125 0.339844 L 9.53125 0.339844 L 9.53125 2.316406 L 0.203125 2.316406 Z M 0.203125 2.316406 L 2.386719 2.316406 L 2.386719 8.203125 L 0.203125 8.203125 Z M 0.203125 8.203125 L 9.023438 8.203125 L 9.023438 10.207031 L 0.203125 10.207031 Z M 0.203125 10.207031 L 2.386719 10.207031 L 2.386719 16.34375 L 0.203125 16.34375 Z M 0.203125 16.34375 L 9.789062 16.34375 L 9.789062 18.320312 L 0.203125 18.320312 Z M 0.203125 16.34375 " clip-rule="nonzero"/></clipPath><clipPath id="6a7d19959a"><rect x="0" width="10" y="0" height="19"/></clipPath><clipPath id="cabb9a9e47"><path d="M 299.40625 13.320312 L 310.640625 13.320312 L 310.640625 31.34375 L 299.40625 31.34375 Z M 299.40625 13.320312 " clip-rule="nonzero"/></clipPath><clipPath id="27bb866ab3"><path d="M 305 21.949219 C 307.105469 21.949219 308.132812 20.875 308.132812 18.636719 C 308.132812 16.453125 307.105469 15.324219 305 15.324219 L 301.660156 15.324219 L 301.660156 21.960938 Z M 299.472656 13.339844 L 305.261719 13.339844 C 308.523438 13.339844 310.320312 15.246094 310.320312 18.636719 C 310.320312 21.261719 309.261719 23.007812 307.285156 23.648438 L 310.578125 31.328125 L 308.242188 31.328125 L 305.109375 23.957031 L 301.667969 23.957031 L 301.667969 31.328125 L 299.484375 31.328125 Z M 299.472656 13.339844 " clip-rule="nonzero"/></clipPath><clipPath id="fa6fbe8657"><path d="M 0.40625 0.320312 L 11.640625 0.320312 L 11.640625 18.34375 L 0.40625 18.34375 Z M 0.40625 0.320312 " clip-rule="nonzero"/></clipPath><clipPath id="3ba6931aaf"><path d="M 6 8.949219 C 8.105469 8.949219 9.132812 7.875 9.132812 5.636719 C 9.132812 3.453125 8.105469 2.324219 6 2.324219 L 2.660156 2.324219 L 2.660156 8.960938 Z M 0.472656 0.339844 L 6.261719 0.339844 C 9.523438 0.339844 11.320312 2.246094 11.320312 5.636719 C 11.320312 8.261719 10.261719 10.007812 8.285156 10.648438 L 11.578125 18.328125 L 9.242188 18.328125 L 6.109375 10.957031 L 2.667969 10.957031 L 2.667969 18.328125 L 0.484375 18.328125 Z M 0.472656 0.339844 " clip-rule="nonzero"/></clipPath><clipPath id="2a89921f8e"><rect x="0" width="12" y="0" height="19"/></clipPath></defs><g clip-path="url(#a7453a2be9)"><g clip-path="url(#f7086e3313)"><g transform="matrix(1, 0, 0, 1, 6, 6)"><g clip-path="url(#20202a6d28)"><g clip-path="url(#1b6a259dff)"><g clip-path="url(#545fbd4b75)"><path fill="#231f20" d="M 0.136719 0.425781 L 27.949219 0.425781 L 27.949219 32.261719 L 0.136719 32.261719 Z M 0.136719 0.425781 " fill-opacity="1" fill-rule="nonzero"/></g></g></g></g></g></g><g clip-path="url(#707c2b2c18)"><g clip-path="url(#f4426c6e3d)"><g transform="matrix(1, 0, 0, 1, 63, 11)"><g clip-path="url(#fc9717b014)"><g clip-path="url(#e0ef00fa77)"><g clip-path="url(#56b317e08e)"><rect x="-134.115" width="465.48" fill="#231f20" height="64.799999" y="-20.9" fill-opacity="1"/></g></g></g></g></g></g><g clip-path="url(#992dc8a623)"><g clip-path="url(#8cec51ae6a)"><g transform="matrix(1, 0, 0, 1, 45, 11)"><g clip-path="url(#c28f6c0df7)"><g clip-path="url(#af55ce1217)"><g clip-path="url(#54baf6ba67)"><rect x="-116.115" width="465.48" fill="#231f20" height="64.799999" y="-20.9" fill-opacity="1"/></g></g></g></g></g></g><g clip-path="url(#7cb6b4c953)"><g clip-path="url(#f5ba59672a)"><g transform="matrix(1, 0, 0, 1, 81, 10)"><g clip-path="url(#3c2185ca49)"><g clip-path="url(#abd29ccb7c)"><g clip-path="url(#5441e38a32)"><rect x="-152.115" width="465.48" fill="#231f20" height="64.799999" y="-19.9" fill-opacity="1"/></g></g></g></g></g></g><g clip-path="url(#4b49017f9f)"><g transform="matrix(1, 0, 0, 1, 98, 11)"><g clip-path="url(#c3b2bbcd8a)"><g clip-path="url(#306d52c268)"><rect x="-169.115" width="465.48" fill="#231f20" height="64.799999" y="-20.9" fill-opacity="1"/></g></g></g></g><g clip-path="url(#643326d7db)"><g clip-path="url(#974bc5384a)"><g transform="matrix(1, 0, 0, 1, 115, 10)"><g clip-path="url(#bb44aa9f89)"><g clip-path="url(#a0e977cdf1)"><g clip-path="url(#f62c5a31e8)"><rect x="-186.115" width="465.48" fill="#231f20" height="64.799999" y="-19.9" fill-opacity="1"/></g></g></g></g></g></g><g clip-path="url(#7e835fe71b)"><g clip-path="url(#3b9292c6a8)"><g transform="matrix(1, 0, 0, 1, 134, 11)"><g clip-path="url(#238d903ba5)"><g clip-path="url(#493d02756d)"><g clip-path="url(#f9376a0ec5)"><rect x="-205.115" width="465.48" fill="#231f20" height="64.799999" y="-20.9" fill-opacity="1"/></g></g></g></g></g></g><g clip-path="url(#de804af6f3)"><g transform="matrix(1, 0, 0, 1, 154, 11)"><g clip-path="url(#f0ea4d0780)"><g clip-path="url(#f57a3e3f26)"><rect x="-225.115" width="465.48" fill="#231f20" height="64.799999" y="-20.9" fill-opacity="1"/></g></g></g></g><g clip-path="url(#c73ed9fc09)"><g clip-path="url(#98efaff4f4)"><g transform="matrix(1, 0, 0, 1, 189, 13)"><g clip-path="url(#07bd63f503)"><g clip-path="url(#142a39d7d0)"><g clip-path="url(#3d2a01483b)"><rect x="-260.115" width="465.48" fill="#231f20" height="64.799999" y="-22.9" fill-opacity="1"/></g></g></g></g></g></g><g clip-path="url(#b7eb5ed931)"><g clip-path="url(#31d4a32dfe)"><g transform="matrix(1, 0, 0, 1, 202, 13)"><g clip-path="url(#df03b12656)"><g clip-path="url(#15c23f0167)"><g clip-path="url(#9caf6cb838)"><rect x="-273.115" width="465.48" fill="#231f20" height="64.799999" y="-22.9" fill-opacity="1"/></g></g></g></g></g></g><g clip-path="url(#7b72fbf66d)"><g clip-path="url(#11acb2b629)"><g transform="matrix(1, 0, 0, 1, 215, 13)"><g clip-path="url(#82341369e6)"><g clip-path="url(#128f27365f)"><g clip-path="url(#ce86dc0ac7)"><rect x="-286.115" width="465.48" fill="#231f20" height="64.799999" y="-22.9" fill-opacity="1"/></g></g></g></g></g></g><g clip-path="url(#780ff9b78d)"><g clip-path="url(#f3ffb2aaf3)"><g transform="matrix(1, 0, 0, 1, 234, 13)"><g clip-path="url(#af84f7a343)"><g clip-path="url(#b9bb970a7e)"><g clip-path="url(#13ac4d853f)"><rect x="-305.115" width="465.48" fill="#231f20" height="64.799999" y="-22.9" fill-opacity="1"/></g></g></g></g></g></g><g clip-path="url(#21b56f6efe)"><g transform="matrix(1, 0, 0, 1, 248, 13)"><g clip-path="url(#e6f6d01f45)"><g clip-path="url(#cf3c73f6e2)"><rect x="-319.115" width="465.48" fill="#231f20" height="64.799999" y="-22.9" fill-opacity="1"/></g></g></g></g><g clip-path="url(#b13c5f445e)"><g clip-path="url(#e951a20010)"><g transform="matrix(1, 0, 0, 1, 260, 13)"><g clip-path="url(#862a9bcb92)"><g clip-path="url(#000645c923)"><g clip-path="url(#a9c59a93d2)"><rect x="-331.115" width="465.48" fill="#231f20" height="64.799999" y="-22.9" fill-opacity="1"/></g></g></g></g></g></g><g clip-path="url(#b6d7642a8a)"><g transform="matrix(1, 0, 0, 1, 273, 13)"><g clip-path="url(#5ba8761f12)"><g clip-path="url(#c500b41d92)"><rect x="-344.115" width="465.48" fill="#231f20" height="64.799999" y="-22.9" fill-opacity="1"/></g></g></g></g><g clip-path="url(#72ca22e527)"><g transform="matrix(1, 0, 0, 1, 287, 13)"><g clip-path="url(#6a7d19959a)"><g clip-path="url(#afef4f17b2)"><rect x="-358.115" width="465.48" fill="#231f20" height="64.799999" y="-22.9" fill-opacity="1"/></g></g></g></g><g clip-path="url(#cabb9a9e47)"><g clip-path="url(#27bb866ab3)"><g transform="matrix(1, 0, 0, 1, 299, 13)"><g clip-path="url(#2a89921f8e)"><g clip-path="url(#fa6fbe8657)"><g clip-path="url(#3ba6931aaf)"><rect x="-370.115" width="465.48" fill="#231f20" height="64.799999" y="-22.9" fill-opacity="1"/></g></g></g></g></g></g></svg>